<mxfile host="app.diagrams.net" modified="2024-06-21T16:55:24.772Z" agent="Mozilla/5.0 (Macintosh; Intel Mac OS X 10_15_7) AppleWebKit/605.1.15 (KHTML, like Gecko) Version/17.5 Safari/605.1.15" version="24.5.5" etag="8Y9wRV9rC4s4j2xy8LdY" type="github">
  <diagram name="Page-1" id="UPttCAinjF_KHvq2pFh3">
    <mxGraphModel>
      <root>
        <mxCell id="0" />
        <mxCell id="1" parent="0" />
      </root>
    </mxGraphModel>
  </diagram>
</mxfile>
